{
    "asset" : {
        "generator" : "Khronos glTF Blender I/O v1.2.75",
        "version" : "2.0"
    },
    "scene" : 0,
    "scenes" : [
        {
            "name" : "Scene",
            "nodes" : [
                0,
                1,
                2
            ]
        }
    ],
    "nodes" : [
        {
            "name" : "Light",
            "rotation" : [
                0.16907575726509094,
                0.7558803558349609,
                -0.27217137813568115,
                0.570947527885437
            ],
            "translation" : [
                3.916245460510254,
                5.903861999511719,
                -1.0054539442062378
            ]
        },
        {
            "name" : "Camera",
            "rotation" : [
                0.483536034822464,
                0.33687159419059753,
                -0.20870360732078552,
                0.7804827094078064
            ],
            "translation" : [
                7.358891487121582,
                4.958309173583984,
                6.925790786743164
            ]
        },
        {
            "mesh" : 0,
            "name" : "KUKA-001-kr100\u673a\u5668\u4ebarobo-kuka-kr1000-titan_\u7db2\u683c",
            "rotation" : [
                0.7071068286895752,
                0,
                0,
                0.7071067094802856
            ]
        }
    ],
    "materials" : [
        {
            "doubleSided" : true,
            "emissiveFactor" : [
                0,
                0,
                0
            ],
            "name" : "KUKA-001-kr100\u673a\u5668\u4ebarobo-kuka-kr1000-titan1.001",
            "pbrMetallicRoughness" : {
                "baseColorFactor" : [
                    1,
                    0.5019609928131104,
                    0,
                    1
                ],
                "metallicFactor" : 1,
                "roughnessFactor" : 0.8964735269546509
            }
        },
        {
            "doubleSided" : true,
            "emissiveFactor" : [
                0,
                0,
                0
            ],
            "name" : "KUKA-001-kr100\u673a\u5668\u4ebarobo-kuka-kr1000-titan2.001",
            "pbrMetallicRoughness" : {
                "baseColorFactor" : [
                    0,
                    1,
                    0,
                    1
                ],
                "metallicFactor" : 1,
                "roughnessFactor" : 0.8964735269546509
            }
        },
        {
            "doubleSided" : true,
            "emissiveFactor" : [
                0,
                0,
                0
            ],
            "name" : "KUKA-001-kr100\u673a\u5668\u4ebarobo-kuka-kr1000-titan3.001",
            "pbrMetallicRoughness" : {
                "baseColorFactor" : [
                    0.4000000059604645,
                    0.4000000059604645,
                    0.4000000059604645,
                    1
                ],
                "metallicFactor" : 1,
                "roughnessFactor" : 0.8964735269546509
            }
        }
    ],
    "meshes" : [
        {
            "name" : "KUKA-001-kr100\u673a\u5668\u4ebarobo-kuka-kr1000-titan_\u7db2\u683c",
            "primitives" : [
                {
                    "attributes" : {
                        "POSITION" : 0,
                        "NORMAL" : 1
                    },
                    "indices" : 2,
                    "material" : 0
                },
                {
                    "attributes" : {
                        "POSITION" : 3,
                        "NORMAL" : 4
                    },
                    "indices" : 5,
                    "material" : 1
                },
                {
                    "attributes" : {
                        "POSITION" : 6,
                        "NORMAL" : 7
                    },
                    "indices" : 8,
                    "material" : 2
                }
            ]
        }
    ],
    "accessors" : [
        {
            "bufferView" : 0,
            "componentType" : 5126,
            "count" : 42796,
            "max" : [
                1.4298659563064575,
                0.4331369996070862,
                0
            ],
            "min" : [
                -0.6020359992980957,
                -0.4331369996070862,
                -1.9137309789657593
            ],
            "type" : "VEC3"
        },
        {
            "bufferView" : 1,
            "componentType" : 5126,
            "count" : 42796,
            "type" : "VEC3"
        },
        {
            "bufferView" : 2,
            "componentType" : 5123,
            "count" : 153744,
            "type" : "SCALAR"
        },
        {
            "bufferView" : 3,
            "componentType" : 5126,
            "count" : 89,
            "max" : [
                1.2097870111465454,
                0.18564000725746155,
                -1.6716970205307007
            ],
            "min" : [
                1.0228819847106934,
                0.18564000725746155,
                -1.7418889999389648
            ],
            "type" : "VEC3"
        },
        {
            "bufferView" : 4,
            "componentType" : 5126,
            "count" : 89,
            "type" : "VEC3"
        },
        {
            "bufferView" : 5,
            "componentType" : 5123,
            "count" : 249,
            "type" : "SCALAR"
        },
        {
            "bufferView" : 6,
            "componentType" : 5126,
            "count" : 21335,
            "max" : [
                1.4477959871292114,
                0.21248899400234222,
                -0.0350320003926754
            ],
            "min" : [
                -0.6785550117492676,
                -0.5129280090332031,
                -1.8727749586105347
            ],
            "type" : "VEC3"
        },
        {
            "bufferView" : 7,
            "componentType" : 5126,
            "count" : 21335,
            "type" : "VEC3"
        },
        {
            "bufferView" : 8,
            "componentType" : 5123,
            "count" : 51273,
            "type" : "SCALAR"
        }
    ],
    "bufferViews" : [
        {
            "buffer" : 0,
            "byteLength" : 513552,
            "byteOffset" : 0
        },
        {
            "buffer" : 0,
            "byteLength" : 513552,
            "byteOffset" : 513552
        },
        {
            "buffer" : 0,
            "byteLength" : 307488,
            "byteOffset" : 1027104
        },
        {
            "buffer" : 0,
            "byteLength" : 1068,
            "byteOffset" : 1334592
        },
        {
            "buffer" : 0,
            "byteLength" : 1068,
            "byteOffset" : 1335660
        },
        {
            "buffer" : 0,
            "byteLength" : 498,
            "byteOffset" : 1336728
        },
        {
            "buffer" : 0,
            "byteLength" : 256020,
            "byteOffset" : 1337228
        },
        {
            "buffer" : 0,
            "byteLength" : 256020,
            "byteOffset" : 1593248
        },
        {
            "buffer" : 0,
            "byteLength" : 102546,
            "byteOffset" : 1849268
        }
    ],
    "buffers" : [
        {
            "byteLength" : 1951816,
            "uri" : "data:application/octet-stream;base64,"
        }
    ]
}
